<svg width="26" height="26" viewBox="0 0 26 26" fill="none" xmlns="http://www.w3.org/2000/svg">
<path d="M17.3333 8.66663C19.0572 8.66663 20.7105 9.35145 21.9294 10.5704C23.1484 11.7894 23.8333 13.4427 23.8333 15.1666V22.75H19.4999V15.1666C19.4999 14.592 19.2716 14.0409 18.8653 13.6346C18.459 13.2282 17.9079 13 17.3333 13C16.7586 13 16.2075 13.2282 15.8012 13.6346C15.3949 14.0409 15.1666 14.592 15.1666 15.1666L15.1666 22.75H10.8333L10.8333 15.1666C10.8333 13.4427 11.5181 11.7894 12.7371 10.5704C13.956 9.35145 15.6093 8.66663 17.3333 8.66663V8.66663Z" stroke="#696984" stroke-width="2" stroke-linecap="round" stroke-linejoin="round"/>
<path d="M6.50008 9.75H2.16675L2.16675 22.75H6.50008L6.50008 9.75Z" stroke="#696984" stroke-width="2" stroke-linecap="round" stroke-linejoin="round"/>
<path d="M4.33341 6.49996C5.53003 6.49996 6.50008 5.52991 6.50008 4.33329C6.50008 3.13668 5.53003 2.16663 4.33341 2.16663C3.1368 2.16663 2.16675 3.13668 2.16675 4.33329C2.16675 5.52991 3.1368 6.49996 4.33341 6.49996Z" stroke="#696984" stroke-width="2" stroke-linecap="round" stroke-linejoin="round"/>
</svg>
