<svg width="26" height="26" viewBox="0 0 26 26" fill="none" xmlns="http://www.w3.org/2000/svg">
<g clip-path="url(#clip0_1493_3796)">
<path d="M24.9166 3.25003C23.8792 3.9818 22.7305 4.54148 21.5149 4.90753C20.8625 4.15733 19.9954 3.62561 19.0309 3.38428C18.0664 3.14295 17.051 3.20366 16.1222 3.55819C15.1933 3.91272 14.3957 4.54396 13.8373 5.36656C13.2789 6.18915 12.9866 7.16339 12.9999 8.15753V9.24086C11.0961 9.29023 9.20963 8.86799 7.50851 8.01176C5.80739 7.15553 4.34443 5.89188 3.24992 4.33336C3.24992 4.33336 -1.08341 14.0834 8.66658 18.4167C6.43549 19.9312 3.77767 20.6905 1.08325 20.5834C10.8332 26 22.7499 20.5834 22.7499 8.12503C22.7489 7.82327 22.7199 7.52226 22.6632 7.22586C23.7689 6.13548 24.5491 4.7588 24.9166 3.25003V3.25003Z" stroke="#696984" stroke-width="2" stroke-linecap="round" stroke-linejoin="round"/>
</g>
<defs>
<clipPath id="clip0_1493_3796">
<rect width="26" height="26" fill="white"/>
</clipPath>
</defs>
</svg>
