<svg width="26" height="26" viewBox="0 0 26 26" fill="none" xmlns="http://www.w3.org/2000/svg">
<g clip-path="url(#clip0_1493_3799)">
<path d="M24.4184 6.95504C24.2897 6.4409 24.0276 5.96983 23.6586 5.5894C23.2896 5.20897 22.8267 4.93266 22.3167 4.78837C20.4534 4.33337 13 4.33337 13 4.33337C13 4.33337 5.54672 4.33337 3.68338 4.83171C3.1734 4.97599 2.71052 5.2523 2.34151 5.63273C1.97249 6.01316 1.7104 6.48423 1.58172 6.99837C1.2407 8.88939 1.07389 10.8077 1.08338 12.7292C1.07123 14.6652 1.23805 16.5981 1.58172 18.5034C1.72359 19.0015 1.99155 19.4547 2.35971 19.8191C2.72786 20.1834 3.18377 20.4467 3.68338 20.5834C5.54672 21.0817 13 21.0817 13 21.0817C13 21.0817 20.4534 21.0817 22.3167 20.5834C22.8267 20.4391 23.2896 20.1628 23.6586 19.7823C24.0276 19.4019 24.2897 18.9308 24.4184 18.4167C24.7568 16.5399 24.9236 14.6362 24.9167 12.7292C24.9289 10.7932 24.762 8.8603 24.4184 6.95504V6.95504Z" stroke="#696984" stroke-width="2" stroke-linecap="round" stroke-linejoin="round"/>
<path d="M10.5625 16.2716L16.7917 12.7291L10.5625 9.18665V16.2716Z" stroke="#696984" stroke-width="2" stroke-linecap="round" stroke-linejoin="round"/>
</g>
<defs>
<clipPath id="clip0_1493_3799">
<rect width="26" height="26" fill="white"/>
</clipPath>
</defs>
</svg>
