<svg width="21" height="17" viewBox="0 0 21 17" fill="none" xmlns="http://www.w3.org/2000/svg">
<path d="M18.5707 0.680343L1.92111 0.680343C1.38747 0.680343 0.933871 0.867117 0.560323 1.24067C0.186774 1.61421 0 2.06781 0 2.60145L0 14.1281C0 14.6617 0.186774 15.1153 0.560323 15.4889C0.933871 15.8624 1.38747 16.0492 1.92111 16.0492H18.5707C19.1043 16.0492 19.5579 15.8624 19.9315 15.4889C20.305 15.1153 20.4918 14.6617 20.4918 14.1281V2.60145C20.4918 2.06781 20.305 1.61421 19.9315 1.24067C19.5579 0.867117 19.1043 0.680343 18.5707 0.680343ZM1.92111 1.96108L18.5707 1.96108C18.7575 1.96108 18.9042 2.02779 19.0109 2.1612C19.1444 2.26792 19.2111 2.41467 19.2111 2.60145V4.24239C18.2772 5.04286 16.2627 6.67046 13.1676 9.12521L12.7674 9.44539C12.2337 9.89899 11.8201 10.2192 11.5266 10.4059C11.0197 10.7528 10.5928 10.9262 10.2459 10.9262C9.89903 10.9262 9.47212 10.7528 8.96516 10.4059C8.64498 10.2192 8.21807 9.89899 7.68443 9.44539L7.32422 9.12521C4.2291 6.67046 2.21461 5.04286 1.28074 4.24239V2.60145C1.28074 2.41467 1.3341 2.26792 1.44083 2.1612C1.57424 2.02779 1.73433 1.96108 1.92111 1.96108ZM18.5707 14.7685H1.92111C1.73433 14.7685 1.57424 14.7151 1.44083 14.6084C1.3341 14.475 1.28074 14.3149 1.28074 14.1281L1.28074 5.92336C2.21461 6.67046 3.96228 8.07127 6.52376 10.1258L6.92399 10.446C7.53767 10.9796 8.04463 11.3665 8.44486 11.6066C9.11191 12.0069 9.71226 12.207 10.2459 12.207C10.7795 12.207 11.3799 12.0069 12.0469 11.6066C12.4205 11.3665 12.9274 10.9796 13.5678 10.446L13.968 10.1258C16.5295 8.07127 18.2772 6.67046 19.2111 5.92336V14.1281C19.2111 14.3149 19.1444 14.475 19.0109 14.6084C18.9042 14.7151 18.7575 14.7685 18.5707 14.7685Z" fill="black"/>
</svg>
