<svg width="22" height="21" viewBox="0 0 22 21" fill="none" xmlns="http://www.w3.org/2000/svg">
<path d="M20.462 19.6296L21.3825 15.5873C21.4625 15.2938 21.4225 15.0136 21.2624 14.7468C21.129 14.48 20.9289 14.2799 20.6621 14.1465L16.3396 12.3054C16.0728 12.1987 15.8059 12.172 15.5391 12.2254C15.2723 12.3054 15.0455 12.4522 14.8587 12.6656L13.0977 14.8269C11.7103 14.1331 10.4695 13.2393 9.37558 12.1453C8.28161 11.0514 7.38776 9.81065 6.69403 8.42318L8.85528 6.66217C9.06873 6.47539 9.20214 6.2486 9.25551 5.98178C9.33555 5.71496 9.32221 5.44814 9.21548 5.18132L7.37442 0.858827C7.24101 0.592006 7.0409 0.37855 6.77408 0.218458C6.50726 0.0850477 6.2271 0.0583656 5.93359 0.138412L1.89127 1.05894C1.62445 1.13899 1.39765 1.28574 1.21087 1.4992C1.0241 1.73933 0.930712 2.00615 0.930712 2.29966C0.930712 5.60823 1.75786 8.67666 3.41214 11.505C5.03975 14.2799 7.22767 16.4678 9.97592 18.0687C12.8309 19.7497 15.926 20.5902 19.2613 20.5902C19.5281 20.5902 19.7682 20.4968 19.9817 20.31C20.2218 20.1233 20.3819 19.8965 20.462 19.6296ZM2.21145 2.29966L6.21375 1.37913L8.05482 5.70162L5.13313 8.06298C6.09369 10.1442 7.20099 11.8118 8.45505 13.0659C9.7091 14.3199 11.3767 15.4272 13.4579 16.3878L15.8193 13.4661L20.1418 15.3071L19.2212 19.3095C16.1528 19.3095 13.2978 18.5357 10.6563 16.9881C8.06816 15.4672 6.02698 13.4261 4.53279 10.8646C2.98523 8.22307 2.21145 5.36809 2.21145 2.29966Z" fill="black"/>
</svg>
