<svg width="18" height="18" viewBox="0 0 18 18" fill="none" xmlns="http://www.w3.org/2000/svg">
<path fill-rule="evenodd" clip-rule="evenodd" d="M11.9852 12.9785C10.7182 14.0246 9.09469 14.654 7.3274 14.654C3.28705 14.654 0 11.3669 0 7.3274C0 3.28705 3.28705 0 7.3274 0C11.3669 0 14.654 3.28705 14.654 7.3274C14.654 9.09469 14.0246 10.7182 12.9785 11.9852L18 17.0074L17.0074 18L11.9852 12.9785ZM1.40475 7.32716C1.40475 10.5931 4.06152 13.2499 7.32751 13.2499C10.5935 13.2499 13.2503 10.5931 13.2503 7.32716C13.2503 4.06117 10.5935 1.4044 7.32751 1.4044C4.06152 1.4044 1.40475 4.06117 1.40475 7.32716Z" fill="#666666"/>
</svg>
