<svg xmlns="http://www.w3.org/2000/svg" shape-rendering="geometricPrecision" text-rendering="geometricPrecision" image-rendering="optimizeQuality" fill-rule="evenodd" clip-rule="evenodd" viewBox="0 0 512 512"><path d="M256 0c70.69 0 134.69 28.66 181.02 74.98C483.35 121.31 512 185.31 512 256c0 70.69-28.65 134.69-74.98 181.02C390.69 483.34 326.69 512 256 512c-70.69 0-134.69-28.66-181.02-74.98C28.66 390.69 0 326.69 0 256c0-70.69 28.66-134.69 74.98-181.02C121.31 28.66 185.31 0 256 0zm-94.89 292.41v-23.97l48.39-63.61c2.22-2.82 3.91-5.76 5.1-8.77 1.19-2.98 1.79-5.8 1.79-8.38v-.2c0-3.8-1.23-6.75-3.68-8.84-2.45-2.05-5.95-3.07-10.46-3.07-4.33 0-7.87 1.42-10.62 4.3-2.75 2.88-4.44 6.98-5 12.28v.1h-27.24v-.1c.89-13.41 5.16-23.77 12.84-31.15 7.65-7.34 17.61-11.05 29.83-11.05 13.24 0 23.5 3.21 30.78 9.6 7.28 6.42 10.92 15.45 10.92 27.17v.1c0 6.39-1.12 12.74-3.38 19.03-2.21 6.33-5.32 12.02-9.33 17.11l-34.72 43.86h48.19v25.59h-83.41zm15.24 22.15c0-.26.1-.48.28-.67.18-.18.4-.27.67-.27h11.15c.26 0 .48.09.67.27.18.19.27.41.27.67v53.1c0 .26-.09.48-.27.67-.19.18-.41.27-.67.27H177.3c-.27 0-.49-.09-.67-.27a.947.947 0 01-.28-.67v-20.58c0-.26-.13-.39-.39-.39h-5.65c-.26 0-.4.13-.4.39v20.58a.92.92 0 01-.94.94h-11.15c-.27 0-.49-.09-.67-.27a.947.947 0 01-.28-.67v-53.1c0-.26.1-.48.28-.67.18-.18.4-.27.67-.27h11.15a.92.92 0 01.94.94v20.5c0 .26.14.39.4.39h5.65c.26 0 .39-.13.39-.39v-20.5zm38.41 54.67c-5.08 0-9.12-1.47-12.13-4.4-3.01-2.93-4.52-6.88-4.52-11.86v-23.72c0-4.92 1.51-8.86 4.52-11.82 3.01-2.96 7.05-4.44 12.13-4.44 5.03 0 9.08 1.48 12.14 4.44 3.06 2.96 4.59 6.9 4.59 11.82v23.72c0 4.98-1.53 8.93-4.59 11.86-3.06 2.93-7.11 4.4-12.14 4.4zm0-11.15c1.16 0 2.06-.41 2.71-1.22.66-.81.99-1.93.99-3.34V328.7c0-1.41-.33-2.53-.99-3.34-.65-.81-1.55-1.22-2.71-1.22-1.15 0-2.04.41-2.67 1.22-.62.81-.94 1.93-.94 3.34v24.82c0 1.41.32 2.53.94 3.34.63.81 1.52 1.22 2.67 1.22zm41.63 11.15c-3.24 0-6.1-.7-8.56-2.08-2.46-1.39-4.37-3.34-5.73-5.85-1.36-2.52-2.04-5.42-2.04-8.72v-38.02a.92.92 0 01.94-.94h11.15a.92.92 0 01.94.94v39.27c0 1.26.3 2.28.91 3.07.6.78 1.4 1.18 2.39 1.18 1 0 1.8-.4 2.4-1.18.6-.79.9-1.81.9-3.07v-39.27c0-.26.1-.48.28-.67.18-.18.4-.27.67-.27h11.15c.26 0 .48.09.67.27.18.19.27.41.27.67v38.02c0 3.3-.68 6.2-2.04 8.72-1.36 2.51-3.27 4.46-5.74 5.85-2.46 1.38-5.31 2.08-8.56 2.08zm46.97-.63c-.57 0-.94-.26-1.09-.78L296.93 347c-.06-.21-.19-.31-.4-.31h-1.18c-.26 0-.39.13-.39.39v20.58c0 .26-.09.48-.27.67-.19.18-.41.27-.67.27h-11.16c-.26 0-.48-.09-.66-.27a.907.907 0 01-.28-.67v-53.1c0-.26.09-.48.28-.67.18-.18.4-.27.66-.27h16.89c3.04 0 5.74.72 8.09 2.16 2.36 1.44 4.18 3.45 5.46 6.05 1.28 2.59 1.93 5.53 1.93 8.83 0 2.94-.54 5.57-1.61 7.9-1.08 2.33-2.58 4.2-4.52 5.61a.8.8 0 00-.24.2c-.05.08-.05.17 0 .27l6.76 22.86.08.32c0 .52-.29.78-.87.78h-11.47zm-8.01-43.83c-.26 0-.39.13-.39.4v11.15c0 .26.13.39.39.39h2.2c1.42 0 2.54-.52 3.38-1.57.84-1.05 1.26-2.49 1.26-4.32 0-1.94-.42-3.43-1.26-4.48-.84-1.04-1.96-1.57-3.38-1.57h-2.2zm43.67 44.46c-3.19 0-5.99-.62-8.4-1.85s-4.28-2.95-5.62-5.18c-1.33-2.23-2-4.75-2-7.58v-2.43c0-.27.09-.49.28-.67.18-.19.4-.28.66-.28h11c.26 0 .49.09.67.28.18.18.27.4.27.67v1.8c0 1.26.3 2.25.91 2.99.6.73 1.37 1.1 2.31 1.1.95 0 1.72-.36 2.32-1.06.6-.71.9-1.61.9-2.71 0-1.21-.47-2.3-1.41-3.26-.94-.97-2.83-2.48-5.66-4.52-2.61-1.89-4.76-3.57-6.44-5.07-1.67-1.49-3.11-3.35-4.32-5.57-1.2-2.23-1.8-4.81-1.8-7.74 0-2.98.66-5.63 2-7.93 1.34-2.31 3.22-4.09 5.66-5.35 2.43-1.25 5.22-1.88 8.36-1.88 3.2 0 6.01.64 8.44 1.92 2.44 1.29 4.32 3.09 5.66 5.42 1.34 2.33 2 5.02 2 8.06v1.88c0 .26-.09.48-.27.67-.19.18-.41.27-.67.27h-10.92c-.26 0-.48-.09-.67-.27a.937.937 0 01-.27-.67v-2.2c0-1.15-.31-2.09-.94-2.83-.63-.73-1.42-1.1-2.36-1.1s-1.7.37-2.28 1.1c-.57.74-.86 1.71-.86 2.91 0 1.31.45 2.49 1.33 3.53.9 1.05 2.7 2.57 5.42 4.56 3.3 2.46 5.79 4.45 7.47 5.97 1.67 1.52 2.98 3.21 3.92 5.06.95 1.86 1.42 4.05 1.42 6.56 0 4.72-1.48 8.46-4.44 11.24-2.96 2.77-6.85 4.16-11.67 4.16zm-80.93-98.44v-24.46l43.46-94.83h30.06l-42.27 93.67h25.69v-35.68h26.57v35.68h11.06v25.62H341.6v21.72h-26.57v-21.72h-56.94zM143.77 84.04c-.46-.79-.8-1.61-1.05-2.45a209.073 209.073 0 00-61.24 61.32c.83.24 1.64.59 2.42 1.04l17.35 10.02c5.33 3.08 7.15 9.91 4.06 15.24-3.08 5.32-9.91 7.14-15.24 4.06l-17.35-10.02c-.77-.45-1.47-.98-2.09-1.57-12.91 25.33-20.78 53.65-22.29 83.65.79-.18 1.63-.27 2.48-.27h20.03c6.15 0 11.14 4.98 11.14 11.13S77 267.33 70.85 267.33l-20.03-.01c-.84 0-1.67-.09-2.46-.27 1.57 29.96 9.48 58.24 22.43 83.52.59-.54 1.25-1.03 1.98-1.44l17.34-10.02c5.33-3.06 12.14-1.22 15.2 4.11 3.06 5.33 1.22 12.13-4.11 15.19l-17.35 10.01c-.69.4-1.41.72-2.15.96 37.1 56.9 101.3 94.53 174.3 94.53 72.99 0 137.19-37.62 174.29-94.52-.75-.23-1.48-.56-2.19-.97l-17.34-10.01c-5.33-3.09-7.15-9.91-4.06-15.24 3.08-5.33 9.91-7.15 15.24-4.06l17.34 10.02c.71.41 1.36.89 1.95 1.42 12.93-25.27 20.84-53.55 22.41-83.5-.79.18-1.61.27-2.46.27h-20.03c-6.15 0-11.13-4.99-11.13-11.13 0-6.15 4.98-11.14 11.13-11.14h20.03c.86 0 1.69.1 2.48.28-1.51-30-9.38-58.32-22.29-83.65-.62.59-1.32 1.12-2.09 1.57l-17.35 10.01c-5.33 3.09-12.16 1.27-15.24-4.06-3.09-5.33-1.27-12.15 4.06-15.24l17.35-10.01c.78-.46 1.59-.8 2.42-1.05a209.177 209.177 0 00-61.22-61.3c-.25.85-.6 1.69-1.07 2.49l-10.01 17.34c-3.09 5.33-9.91 7.15-15.24 4.06-5.33-3.08-7.15-9.91-4.06-15.23l10.01-17.35c.47-.8 1.02-1.53 1.64-2.17-25.35-12.97-53.72-20.89-83.77-22.43.21.87.33 1.77.33 2.7v20.03c0 6.15-4.99 11.14-11.14 11.14-6.14 0-11.13-4.99-11.13-11.14V51.01c0-.93.12-1.83.33-2.69-30.05 1.54-58.43 9.45-83.78 22.43.63.65 1.19 1.38 1.66 2.2l10.01 17.35c3.06 5.33 1.22 12.13-4.11 15.19-5.32 3.07-12.13 1.23-15.19-4.1l-10.01-17.35zM256 39.53c59.77 0 113.88 24.22 153.05 63.39 39.17 39.17 63.4 93.29 63.4 153.05 0 59.77-24.23 113.88-63.4 153.05-39.17 39.17-93.28 63.4-153.05 63.4-59.76 0-113.88-24.23-153.05-63.4-39.17-39.17-63.39-93.28-63.39-153.05 0-59.76 24.22-113.88 63.39-153.05C142.12 63.75 196.24 39.53 256 39.53zm0-14.37c127.49 0 230.84 103.35 230.84 230.84 0 127.49-103.35 230.84-230.84 230.84-127.49 0-230.84-103.35-230.84-230.84C25.16 128.51 128.51 25.16 256 25.16z"/></svg>